[Header]			# Header keywords are followed by a single value
FileType htr		# single word string
DataType HTRS		# Hierarchical translations followed by rotations and Scale
FileVersion 1		# integer
NumSegments 20		# integer
NumFrames 7		# integer
DataFrameRate 60	# integer
EulerRotationOrder ZYX	# one word string
CalibrationUnits mm	# one word string
RotationUnits Degrees	# one word string
GlobalAxisofGravity Y	# character, X or Y or Z
BoneLengthAxis Y
ScaleFactor 1.000000
[SegmentNames&Hierarchy]
#CHILD	PARENT
LowerTorso	GLOBAL
UpperTorso	LowerTorso
LCollarBone	UpperTorso
RCollarBone	UpperTorso
LUpArm	LCollarBone
RUpArm	RCollarBone
LLowArm	LUpArm
RLowArm	RUpArm
LHand	LLowArm
RHand	RLowArm
LPelvis	LowerTorso
RPelvis	LowerTorso
LThigh	LPelvis
RThigh	RPelvis
LLowLeg	LThigh
RLowLeg	RThigh
LFoot	LLowLeg
RFoot	RLowLeg
Neck	UpperTorso
Head	Neck
[BasePosition]
#SegmentName Tx, Ty, Tz, Rx, Ry, Rz, BoneLength
LowerTorso	0.000000	0.000000	0.000000	0.000000	0.000000	0.000000	247.497849
UpperTorso	0.000000	247.497849	0.000000	-3.483188	-0.016176	-0.898562	303.935425
LCollarBone	0.000000	303.935425	0.000000	-2.778975	2.380151	-103.909637	160.814774
RCollarBone	0.000000	303.935425	0.000000	1.923138	-2.431442	97.423370	173.085861
LUpArm	0.000000	160.814774	0.000000	9.905276	-0.146364	3.830753	266.228302
RUpArm	0.000000	173.085861	0.000000	3.559436	0.163580	4.186032	250.544907
LLowArm	0.000000	266.228302	0.000000	0.604391	2.460426	18.478745	239.401855
RLowArm	0.000000	250.544907	0.000000	-4.677841	-1.676118	-16.763147	247.676224
LHand	0.000000	239.401855	0.000000	-2.922581	-1.504997	-10.879651	178.693573
RHand	0.000000	247.676224	0.000000	8.087741	0.221451	14.771751	171.097885
LPelvis	0.000000	0.000000	0.000000	25.628080	-1.004481	-103.107483	127.213554
RPelvis	0.000000	0.000000	0.000000	7.212610	1.026056	95.806335	154.731140
LThigh	0.000000	127.213554	0.000000	-8.629928	-24.934669	-78.343170	392.414856
RThigh	0.000000	154.731140	0.000000	-0.087953	7.045837	82.361420	403.151337
LLowLeg	0.000000	392.414856	0.000000	-11.135172	-0.396179	6.207254	411.539612
RLowLeg	0.000000	403.151337	0.000000	-15.879393	-0.038285	-2.567663	396.965240
LFoot	0.000000	411.539612	0.000000	86.993790	-9.419292	-7.421347	182.020935
RFoot	0.000000	396.965240	0.000000	85.685738	19.489246	8.810133	181.714371
Neck	0.000000	303.935425	0.000000	26.917892	0.010495	-0.245093	141.112030
Head	0.000000	141.112030	0.000000	-34.290924	-1.751020	-3.852423	164.098740
#Beginning of Data. Separated by tabs.
[LowerTorso]
#Fr	Tx	Ty	Tz	Rx	Ry	Rz	SF
375	1134.926758	677.899902	-950.456116	169.296341	-59.334148	-167.117355	1.000000
376	1116.590820	680.903503	-971.165527	166.516113	-63.096272	-164.598251	1.000000
377	1100.204102	686.314392	-989.790833	163.231598	-66.299637	-161.458496	1.000000
378	1085.921631	693.424500	-1006.933167	159.079483	-69.007301	-157.305542	1.000000
379	1073.268311	701.818726	-1023.269043	153.296082	-71.262100	-151.347321	1.000000
380	1061.352051	711.602844	-1039.331787	145.186691	-72.968399	-143.022614	1.000000
381	1049.282227	723.359558	-1055.341064	134.827515	-73.929512	-132.544983	1.000000
[UpperTorso]
#Fr	Tx	Ty	Tz	Rx	Ry	Rz	SF
375	0.000000	0.000000	0.000000	25.661852	18.113098	-8.907316	1.000000
376	0.000000	0.000000	0.000000	26.385468	16.569811	-7.992393	1.000000
377	0.000000	0.000000	0.000000	26.646584	15.406525	-6.676125	1.000000
378	0.000000	0.000000	0.000000	26.544382	14.306619	-5.150815	1.000000
379	0.000000	0.000000	0.000000	26.174492	12.973042	-3.448791	1.000000
380	0.000000	0.000000	0.000000	25.729383	11.320395	-1.493490	1.000000
381	0.000000	0.000000	0.000000	25.245153	9.413003	0.774473	1.000000
[LCollarBone]
#Fr	Tx	Ty	Tz	Rx	Ry	Rz	SF
375	0.000000	0.000000	0.000000	10.344462	7.862627	-19.887753	1.000000
376	0.000000	0.000000	0.000000	12.509865	9.037403	-18.897181	1.000000
377	0.000000	0.000000	0.000000	14.436975	9.900805	-17.730333	1.000000
378	0.000000	0.000000	0.000000	15.983440	10.329651	-16.322178	1.000000
379	0.000000	0.000000	0.000000	17.211891	10.382781	-14.701091	1.000000
380	0.000000	0.000000	0.000000	18.064154	10.045437	-12.854719	1.000000
381	0.000000	0.000000	0.000000	18.656141	9.437873	-10.831455	1.000000
[RCollarBone]
#Fr	Tx	Ty	Tz	Rx	Ry	Rz	SF
375	0.000000	0.000000	0.000000	17.945539	-7.086299	15.261350	1.000000
376	0.000000	0.000000	0.000000	19.349230	-7.561890	14.756390	1.000000
377	0.000000	0.000000	0.000000	20.191271	-7.600845	13.791055	1.000000
378	0.000000	0.000000	0.000000	20.663391	-7.338240	12.533460	1.000000
379	0.000000	0.000000	0.000000	21.104568	-6.955827	11.087149	1.000000
380	0.000000	0.000000	0.000000	21.602942	-6.497097	9.449412	1.000000
381	0.000000	0.000000	0.000000	22.251106	-5.974091	7.584212	1.000000
[LUpArm]
#Fr	Tx	Ty	Tz	Rx	Ry	Rz	SF
375	0.000000	0.000000	0.000000	-6.529935	21.310677	-42.606979	1.000000
376	0.000000	0.000000	0.000000	-0.276301	27.546574	-36.648170	1.000000
377	0.000000	0.000000	0.000000	7.942602	32.061352	-28.535368	1.000000
378	0.000000	0.000000	0.000000	17.511562	33.594238	-19.159014	1.000000
379	0.000000	0.000000	0.000000	26.786299	31.874939	-10.091951	1.000000
380	0.000000	0.000000	0.000000	34.481544	27.521563	-2.558161	1.000000
381	0.000000	0.000000	0.000000	40.015614	21.471554	3.165565	1.000000
[RUpArm]
#Fr	Tx	Ty	Tz	Rx	Ry	Rz	SF
375	0.000000	0.000000	0.000000	-2.094842	-40.501530	33.314583	1.000000
376	0.000000	0.000000	0.000000	4.293654	-43.151997	28.738520	1.000000
377	0.000000	0.000000	0.000000	12.868959	-45.757698	21.876152	1.000000
378	0.000000	0.000000	0.000000	23.303392	-47.212643	12.600688	1.000000
379	0.000000	0.000000	0.000000	33.912125	-46.398220	2.225106	1.000000
380	0.000000	0.000000	0.000000	42.338638	-42.972355	-7.029209	1.000000
381	0.000000	0.000000	0.000000	47.478935	-37.569283	-13.789536	1.000000
[LLowArm]
#Fr	Tx	Ty	Tz	Rx	Ry	Rz	SF
375	0.000000	0.000000	0.000000	10.469984	-1.610017	0.075638	1.000000
376	0.000000	0.000000	0.000000	12.924385	-1.987401	0.050740	1.000000
377	0.000000	0.000000	0.000000	15.048865	-2.312846	0.016154	1.000000
378	0.000000	0.000000	0.000000	16.758364	-2.573572	-0.020424	1.000000
379	0.000000	0.000000	0.000000	18.489899	-2.836344	-0.065389	1.000000
380	0.000000	0.000000	0.000000	20.299789	-3.109325	-0.120854	1.000000
381	0.000000	0.000000	0.000000	22.551872	-3.446180	-0.201867	1.000000
[RLowArm]
#Fr	Tx	Ty	Tz	Rx	Ry	Rz	SF
375	0.000000	0.000000	0.000000	19.164215	1.664886	0.255186	1.000000
376	0.000000	0.000000	0.000000	20.154249	1.747597	0.283340	1.000000
377	0.000000	0.000000	0.000000	20.634909	1.787572	0.297524	1.000000
378	0.000000	0.000000	0.000000	20.833200	1.804028	0.303472	1.000000
379	0.000000	0.000000	0.000000	21.381575	1.849427	0.320220	1.000000
380	0.000000	0.000000	0.000000	22.702421	1.958096	0.362335	1.000000
381	0.000000	0.000000	0.000000	25.101887	2.152871	0.445201	1.000000
[LHand]
#Fr	Tx	Ty	Tz	Rx	Ry	Rz	SF
375	0.000000	0.000000	0.000000	0.124916	-6.895245	-7.906247	1.000000
376	0.000000	0.000000	0.000000	0.310958	-5.059979	-6.719181	1.000000
377	0.000000	0.000000	0.000000	0.508523	-3.333424	-5.106844	1.000000
378	0.000000	0.000000	0.000000	0.934500	-1.868412	-3.251529	1.000000
379	0.000000	0.000000	0.000000	1.786408	-0.716782	-1.353828	1.000000
380	0.000000	0.000000	0.000000	3.442764	0.009787	0.421377	1.000000
381	0.000000	0.000000	0.000000	5.905783	0.307004	2.025496	1.000000
[RHand]
#Fr	Tx	Ty	Tz	Rx	Ry	Rz	SF
375	0.000000	0.000000	0.000000	2.165667	11.530910	-4.630326	1.000000
376	0.000000	0.000000	0.000000	2.136994	10.610350	-5.002090	1.000000
377	0.000000	0.000000	0.000000	2.314623	9.391902	-5.611716	1.000000
378	0.000000	0.000000	0.000000	3.151324	7.687047	-6.106332	1.000000
379	0.000000	0.000000	0.000000	4.918097	5.430329	-6.303688	1.000000
380	0.000000	0.000000	0.000000	7.426236	2.907053	-6.564279	1.000000
381	0.000000	0.000000	0.000000	10.198136	0.712619	-7.488244	1.000000
[LPelvis]
#Fr	Tx	Ty	Tz	Rx	Ry	Rz	SF
375	0.000000	0.000000	0.000000	0.000000	0.000000	0.000000	1.000000
376	0.000000	0.000000	0.000000	0.000000	0.000000	0.000000	1.000000
377	0.000000	0.000000	0.000000	0.000000	0.000000	0.000000	1.000000
378	0.000000	0.000000	0.000000	0.000000	0.000000	0.000000	1.000000
379	0.000000	0.000000	0.000000	0.000000	0.000000	0.000000	1.000000
380	0.000000	0.000000	0.000000	0.000000	0.000000	0.000000	1.000000
381	0.000000	0.000000	0.000000	0.000000	0.000000	0.000000	1.000000
[RPelvis]
#Fr	Tx	Ty	Tz	Rx	Ry	Rz	SF
375	0.000000	0.000000	0.000000	0.000000	0.000000	0.000000	1.000000
376	0.000000	0.000000	0.000000	0.000000	0.000000	0.000000	1.000000
377	0.000000	0.000000	0.000000	0.000000	0.000000	0.000000	1.000000
378	0.000000	0.000000	0.000000	0.000000	0.000000	0.000000	1.000000
379	0.000000	0.000000	0.000000	0.000000	0.000000	0.000000	1.000000
380	0.000000	0.000000	0.000000	0.000000	0.000000	0.000000	1.000000
381	0.000000	0.000000	0.000000	0.000000	0.000000	0.000000	1.000000
[LThigh]
#Fr	Tx	Ty	Tz	Rx	Ry	Rz	SF
375	0.000000	0.000000	0.000000	55.067741	-7.590294	-25.736959	1.000000
376	0.000000	0.000000	0.000000	52.460808	-6.802600	-25.210596	1.000000
377	0.000000	0.000000	0.000000	49.982113	-6.701073	-24.630732	1.000000
378	0.000000	0.000000	0.000000	47.847141	-7.246367	-23.862717	1.000000
379	0.000000	0.000000	0.000000	46.041946	-8.022189	-22.628649	1.000000
380	0.000000	0.000000	0.000000	44.284576	-8.717080	-20.757700	1.000000
381	0.000000	0.000000	0.000000	42.277771	-9.232019	-18.210224	1.000000
[RThigh]
#Fr	Tx	Ty	Tz	Rx	Ry	Rz	SF
375	0.000000	0.000000	0.000000	-1.725351	9.059289	2.263235	1.000000
376	0.000000	0.000000	0.000000	4.589171	9.343597	3.504890	1.000000
377	0.000000	0.000000	0.000000	11.760469	8.427979	4.262172	1.000000
378	0.000000	0.000000	0.000000	19.474802	6.674716	4.359361	1.000000
379	0.000000	0.000000	0.000000	27.375580	4.768244	3.847121	1.000000
380	0.000000	0.000000	0.000000	34.955448	3.200330	2.941169	1.000000
381	0.000000	0.000000	0.000000	41.784580	2.116201	1.892189	1.000000
[LLowLeg]
#Fr	Tx	Ty	Tz	Rx	Ry	Rz	SF
375	0.000000	0.000000	0.000000	-54.452034	4.259426	-0.941053	1.000000
376	0.000000	0.000000	0.000000	-55.764931	4.342443	-1.011745	1.000000
377	0.000000	0.000000	0.000000	-56.265060	4.373636	-1.039172	1.000000
378	0.000000	0.000000	0.000000	-56.363323	4.379736	-1.044592	1.000000
379	0.000000	0.000000	0.000000	-56.303268	4.376009	-1.041278	1.000000
380	0.000000	0.000000	0.000000	-56.053799	4.360489	-1.027553	1.000000
381	0.000000	0.000000	0.000000	-55.428711	4.321339	-0.993461	1.000000
[RLowLeg]
#Fr	Tx	Ty	Tz	Rx	Ry	Rz	SF
375	0.000000	0.000000	0.000000	-65.586266	-3.357233	1.076060	1.000000
376	0.000000	0.000000	0.000000	-68.676247	-3.464815	1.214527	1.000000
377	0.000000	0.000000	0.000000	-70.492195	-3.524500	1.298541	1.000000
378	0.000000	0.000000	0.000000	-70.938957	-3.538774	1.319497	1.000000
379	0.000000	0.000000	0.000000	-69.972275	-3.507685	1.274294	1.000000
380	0.000000	0.000000	0.000000	-67.689384	-3.431271	1.169677	1.000000
381	0.000000	0.000000	0.000000	-64.298271	-3.310211	1.020091	1.000000
[LFoot]
#Fr	Tx	Ty	Tz	Rx	Ry	Rz	SF
375	0.000000	0.000000	0.000000	16.479870	-1.622341	5.082764	1.000000
376	0.000000	0.000000	0.000000	18.107962	-2.240571	3.820953	1.000000
377	0.000000	0.000000	0.000000	19.507534	-2.714637	2.741140	1.000000
378	0.000000	0.000000	0.000000	20.554884	-3.092023	1.440060	1.000000
379	0.000000	0.000000	0.000000	21.264183	-3.401987	-0.191394	1.000000
380	0.000000	0.000000	0.000000	21.704702	-3.655146	-1.945850	1.000000
381	0.000000	0.000000	0.000000	21.915592	-3.861509	-3.642245	1.000000
[RFoot]
#Fr	Tx	Ty	Tz	Rx	Ry	Rz	SF
375	0.000000	0.000000	0.000000	-4.169546	-8.028116	-12.734237	1.000000
376	0.000000	0.000000	0.000000	0.967130	-6.050209	-15.859071	1.000000
377	0.000000	0.000000	0.000000	4.578327	-3.793978	-16.735691	1.000000
378	0.000000	0.000000	0.000000	6.432352	-2.295902	-16.003429	1.000000
379	0.000000	0.000000	0.000000	6.698580	-1.764933	-14.500396	1.000000
380	0.000000	0.000000	0.000000	6.127292	-1.704612	-12.768804	1.000000
381	0.000000	0.000000	0.000000	5.510931	-1.635587	-11.137853	1.000000
[Neck]
#Fr	Tx	Ty	Tz	Rx	Ry	Rz	SF
375	0.000000	0.000000	0.000000	-10.950912	6.430981	-5.174423	1.000000
376	0.000000	0.000000	0.000000	-10.865298	6.218271	-4.748381	1.000000
377	0.000000	0.000000	0.000000	-10.503130	6.011552	-4.277119	1.000000
378	0.000000	0.000000	0.000000	-10.034874	5.864372	-3.809136	1.000000
379	0.000000	0.000000	0.000000	-9.497092	5.798023	-3.412325	1.000000
380	0.000000	0.000000	0.000000	-8.956436	5.792363	-3.135377	1.000000
381	0.000000	0.000000	0.000000	-8.334331	5.811267	-3.006757	1.000000
[Head]
#Fr	Tx	Ty	Tz	Rx	Ry	Rz	SF
375	0.000000	0.000000	0.000000	-23.071402	14.254450	-4.465974	1.000000
376	0.000000	0.000000	0.000000	-22.761101	13.557693	-3.820045	1.000000
377	0.000000	0.000000	0.000000	-21.908489	12.880165	-3.032040	1.000000
378	0.000000	0.000000	0.000000	-20.846754	12.329499	-2.171127	1.000000
379	0.000000	0.000000	0.000000	-19.678232	11.981898	-1.368792	1.000000
380	0.000000	0.000000	0.000000	-18.528183	11.827676	-0.759724	1.000000
381	0.000000	0.000000	0.000000	-17.265345	11.842358	-0.396916	1.000000
[EndOfFile]
